<?xml version="1.0" encoding="UTF-8" standalone="no"?>
<!-- Created with Inkscape (http://www.inkscape.org/) -->

<svg
   xmlns:dc="http://purl.org/dc/elements/1.1/"
   xmlns:cc="http://creativecommons.org/ns#"
   xmlns:rdf="http://www.w3.org/1999/02/22-rdf-syntax-ns#"
   xmlns:svg="http://www.w3.org/2000/svg"
   xmlns="http://www.w3.org/2000/svg"
   xmlns:sodipodi="http://sodipodi.sourceforge.net/DTD/sodipodi-0.dtd"
   xmlns:inkscape="http://www.inkscape.org/namespaces/inkscape"
   width="256"
   height="64"
   viewBox="0 0 256 64.000002"
   id="svg2"
   version="1.1"
   inkscape:version="0.91 r13725"
   sodipodi:docname="recording.svg">
  <defs
     id="defs4" />
  <sodipodi:namedview
     id="base"
     pagecolor="#ffffff"
     bordercolor="#666666"
     borderopacity="1.0"
     inkscape:pageopacity="0.0"
     inkscape:pageshadow="2"
     inkscape:zoom="5.162196"
     inkscape:cx="156.18555"
     inkscape:cy="33.025486"
     inkscape:document-units="px"
     inkscape:current-layer="layer1"
     showgrid="false"
     units="px"
     inkscape:window-width="2507"
     inkscape:window-height="1056"
     inkscape:window-x="53"
     inkscape:window-y="1104"
     inkscape:window-maximized="1"
     borderlayer="false" />
  <metadata
     id="metadata7">
    <rdf:RDF>
      <cc:Work
         rdf:about="">
        <dc:format>image/svg+xml</dc:format>
        <dc:type
           rdf:resource="http://purl.org/dc/dcmitype/StillImage" />
        <dc:title />
      </cc:Work>
    </rdf:RDF>
  </metadata>
  <g
     inkscape:label="Layer 1"
     inkscape:groupmode="layer"
     id="layer1"
     transform="translate(0,-988.3622)">
    <g
       id="g4169"
       transform="translate(0.83846545,0)">
      <circle
         r="25"
         cy="1020.3622"
         cx="35.436199"
         id="path4136"
         style="color:#000000;clip-rule:nonzero;display:inline;overflow:visible;visibility:visible;opacity:1;isolation:auto;mix-blend-mode:normal;color-interpolation:sRGB;color-interpolation-filters:linearRGB;solid-color:#000000;solid-opacity:1;fill:#ff6565;fill-opacity:1;fill-rule:nonzero;stroke:#ffffff;stroke-width:6.30000019;stroke-linecap:round;stroke-linejoin:round;stroke-miterlimit:4;stroke-dasharray:none;stroke-dashoffset:0;stroke-opacity:1;color-rendering:auto;image-rendering:auto;shape-rendering:auto;text-rendering:auto;enable-background:accumulate" />
      <g
         transform="translate(0,-9.0252486e-6)"
         id="g4161">
        <path
           inkscape:connector-curvature="0"
           style="color:#000000;font-style:normal;font-variant:normal;font-weight:normal;font-stretch:normal;font-size:17.98860168px;line-height:125%;font-family:mono;-inkscape-font-specification:mono;text-indent:0;text-align:start;text-decoration:none;text-decoration-line:none;text-decoration-style:solid;text-decoration-color:#000000;letter-spacing:0px;word-spacing:0px;text-transform:none;direction:ltr;block-progression:tb;writing-mode:lr-tb;baseline-shift:baseline;text-anchor:start;white-space:normal;clip-rule:nonzero;display:inline;overflow:visible;visibility:visible;opacity:1;isolation:auto;mix-blend-mode:normal;color-interpolation:sRGB;color-interpolation-filters:linearRGB;solid-color:#000000;solid-opacity:1;fill:#ffffff;fill-opacity:1;fill-rule:nonzero;stroke:none;stroke-width:1px;stroke-linecap:butt;stroke-linejoin:miter;stroke-miterlimit:4;stroke-dasharray:none;stroke-dashoffset:0;stroke-opacity:1;color-rendering:auto;image-rendering:auto;shape-rendering:auto;text-rendering:auto;enable-background:accumulate"
           d="m 139.96635,996.09702 a 4.6050528,4.7775932 0 0 0 -4.62235,3.56505 c -0.1785,0.71003 -0.45608,1.47503 -0.67337,2.20403 l -7.43313,0 a 4.6050528,4.7775932 0 0 0 -0.84714,0.085 4.6050528,4.7775932 0 0 0 -4.31391,-3.11879 l -33.890032,0 a 4.6050528,4.7775932 0 0 0 -4.604979,4.77749 l 0,4.8181 a 4.6050528,4.7775932 0 0 0 3.827345,4.7099 4.6050528,4.7775932 0 0 0 -0.308445,1.7217 l 0,13.6565 -0.312793,0 a 4.6050528,4.7775932 0 0 0 -4.604977,4.7775 l 0,4.8541 a 4.6050528,4.7775932 0 0 0 4.604977,4.7775 l 36.370634,0 a 4.6050528,4.7775932 0 0 0 4.11842,-2.6457 4.6050528,4.7775932 0 0 0 4.56153,4.142 l 4.84392,0 a 4.6050528,4.7775932 0 0 0 2.80643,-0.996 l 23.15956,0 a 4.6050528,4.7775932 0 0 0 4.02284,-2.4565 4.6050528,4.7775932 0 0 0 4.87433,0.8834 c 0.66085,-0.2861 1.56845,-0.6971 2.28076,-1.0094 10e-4,0 0.008,0.023 0.009,0.028 a 4.6050528,4.7775932 0 0 0 4.49637,3.7589 c 3.08462,0 5.64743,0.065 8.41929,-1.0142 a 4.6050528,4.7775932 0 0 0 0.0565,-0.023 c 1.45346,-0.5885 3.17545,-1.8595 4.07932,-3.6057 0.20225,-0.3909 0.0954,-0.7271 0.2259,-1.1088 2.26844,1.5318 4.68419,2.887 7.38969,3.8085 a 4.6050528,4.7775932 0 0 0 5.42171,-2.141 c 0.14903,-0.2663 0.44651,-0.6028 0.73419,-1.0186 a 4.6050528,4.7775932 0 0 0 3.44504,1.6137 l 3.14964,0 a 4.6050528,4.7775932 0 0 0 4.37038,3.281 l 4.52244,0 a 4.6050528,4.7775932 0 0 0 4.32692,-3.1504 c 1.40006,-0.1038 2.84858,-0.3925 4.38343,-1.3476 0.0296,-0.023 0.0356,-0.067 0.0652,-0.085 0.0133,0.069 0.0952,0.2967 0.0999,0.338 a 4.6050528,4.7775932 0 0 0 4.5702,4.2006 c 3.23673,0 5.99284,0.1154 8.98405,-1.4782 a 4.6050528,4.7775932 0 0 0 0.13479,-0.072 c 1.4282,-0.8231 2.85203,-2.3738 3.53193,-4.0607 0.6799,-1.6871 0.79501,-3.2842 0.79501,-4.9353 l 0,-32.2123 a 4.6050528,4.7775932 0 0 0 -4.60498,-4.77744 l -4.56153,0 a 4.6050528,4.7775932 0 0 0 -4.14447,2.69969 l -3.01496,0 a 4.6050528,4.7775932 0 0 0 -3.7926,2.07345 l -2.16782,0 0,-0.451 a 4.6050528,4.7775932 0 0 0 -4.60496,-4.77744 l -4.52243,0 a 4.6050528,4.7775932 0 0 0 -2.90201,1.0682 l -2.14609,-0.46868 a 4.6050528,4.7775932 0 0 0 -5.47384,3.78592 c -0.4785,2.6201 -1.41469,4.8059 -2.2547,6.756 0.0678,-1.5149 0.22927,-3.0303 0.25631,-4.489 a 4.6050528,4.7775932 0 0 0 -4.36604,-4.85849 l -3.84038,-0.20768 a 4.6050528,4.7775932 0 0 0 -1.25985,0.11307 l -0.37361,0.0854 -23.33334,0 a 4.6050528,4.7775932 0 0 0 -4.59629,4.5114 4.6050528,4.7775932 0 0 0 -2.56314,-0.8157 l -13.37616,0 a 4.6050528,4.7775932 0 0 0 -3.51456,-4.38983 l -5.00031,-1.24843 a 4.6050528,4.7775932 0 0 0 -0.9123,-0.13154 z M 122.954,1013.1158 a 4.6050528,4.7775932 0 0 0 3.91423,3.0198 c -0.728,0.7769 -1.48099,1.4835 -2.26773,2.1137 l 0,-0.6895 a 4.6050528,4.7775932 0 0 0 -2.71955,-4.3538 l 0.1955,0 a 4.6050528,4.7775932 0 0 0 0.87755,-0.09 z m 42.59605,12.6606 a 4.6050528,4.7775932 0 0 0 1.76813,2.0731 c -0.44291,0.1616 -1.24017,0.492 -1.63346,0.6309 a 4.6050528,4.7775932 0 0 0 -1.66822,1.0459 4.6050528,4.7775932 0 0 0 -1.36846,-0.2216 l -0.67337,0 a 4.6050528,4.7775932 0 0 0 3.57538,-3.529 z m -43.19122,0.6895 c 0.30813,0.5524 0.6346,1.2551 1.01657,2.0598 a 4.6050528,4.7775932 0 0 0 -0.21723,0 l -9.87898,0 0,-1.3657 6.71632,0 a 4.6050528,4.7775932 0 0 0 2.36331,-0.6851 z m 81.13884,0.8833 0,1.4243 c -0.43926,-0.1361 -0.7269,-0.411 -1.1469,-0.5679 0.38558,-0.3113 0.77233,-0.5386 1.1469,-0.8564 z"
           id="path4140" />
        <g
           style="color:#000000;font-style:normal;font-variant:normal;font-weight:normal;font-stretch:normal;font-size:17.98860168px;line-height:125%;font-family:mono;-inkscape-font-specification:mono;text-indent:0;text-align:start;text-decoration:none;text-decoration-line:none;text-decoration-style:solid;text-decoration-color:#000000;letter-spacing:0px;word-spacing:0px;text-transform:none;direction:ltr;block-progression:tb;writing-mode:lr-tb;baseline-shift:baseline;text-anchor:start;white-space:normal;clip-rule:nonzero;display:inline;overflow:visible;visibility:visible;opacity:1;isolation:auto;mix-blend-mode:normal;color-interpolation:sRGB;color-interpolation-filters:linearRGB;solid-color:#000000;solid-opacity:1;fill:#ff6d6d;fill-opacity:1;fill-rule:nonzero;stroke:none;stroke-width:1px;stroke-linecap:butt;stroke-linejoin:miter;stroke-miterlimit:4;stroke-dasharray:none;stroke-dashoffset:0;stroke-opacity:1;color-rendering:auto;image-rendering:auto;shape-rendering:auto;text-rendering:auto;enable-background:accumulate"
           id="text4134"
           transform="matrix(2.2242912,0,0,2.3076301,0.23134001,-1369.4041)">
          <path
             inkscape:connector-curvature="0"
             d="m 48.75311,1041.1964 0,-4.731 5.090774,0 0,-2.0867 -5.090774,0 0,-3.9575 6.026181,0 0,-2.0867 -15.236345,0 0,2.0867 6.9436,0 0,10.7752 -3.130017,0 0,-7.987 -2.230586,0 0,7.987 -2.212598,0 0,2.1046 16.351638,0 0,-2.1046 -6.511873,0 z"
             style="font-weight:bold;fill:#ff6d6d;fill-opacity:1"
             id="path4171" />
          <path
             inkscape:connector-curvature="0"
             d="m 68.756435,1037.4368 3.561743,0 0,-1.9788 -3.561743,0 0,-2.9861 -2.158632,0 0,2.9861 -3.651687,0 0,1.9788 3.651687,0 0,4.1014 -4.353242,0 0,1.9787 10.775172,0 0,-1.9787 -4.263298,0 0,-4.1014 z m -4.443185,-7.7891 c 0.251841,-0.6476 0.485692,-1.2952 0.683567,-1.9608 l -2.248575,-0.5396 c -0.215863,0.8275 -0.485693,1.6549 -0.791499,2.5004 l -4.856922,0 0,2.0507 3.903526,0 c -1.079316,2.0687 -2.590358,3.9575 -4.479161,5.1807 0.341783,0.5217 0.827475,1.4931 1.061327,2.0687 0.575635,-0.3957 1.079316,-0.7915 1.582997,-1.2592 l 0,6.26 2.176621,0 0,-8.7065 c 0.827475,-1.0973 1.511042,-2.3025 2.104666,-3.5437 l 9.623902,0 0,-2.0507 -8.760449,0 z"
             style="font-weight:bold;fill:#ff6d6d;fill-opacity:1"
             id="path4173" />
          <path
             inkscape:connector-curvature="0"
             d="m 84.100712,1035.6919 4.155367,0 c -0.719544,0.7555 -1.816849,1.6549 -2.770245,2.3565 -0.557646,-0.6116 -1.007361,-1.2772 -1.385122,-1.9788 l 0,-0.3777 z m 4.281287,0 2.608347,0 0,-1.8529 -2.194609,0 c 0.179886,-1.8528 0.305806,-3.9215 0.341783,-5.7923 l -1.726905,-0.09 -0.39575,0.09 -10.721206,0 0,1.9428 10.433389,0 -0.03598,0.9714 -9.803788,0 0,1.9068 9.695856,0 -0.05397,0.9713 -11.31483,0 0,1.8529 6.69176,0 0,2.8242 c -2.518405,0.9893 -5.162729,1.9787 -6.853658,2.5544 l 1.169259,1.9247 c 1.636963,-0.6835 3.687664,-1.565 5.684399,-2.4284 l 0,1.3311 c 0,0.2519 -0.107932,0.3238 -0.39575,0.3238 -0.269829,0.018 -1.313168,0.018 -2.158632,-0.036 0.269829,0.5217 0.593624,1.2772 0.719544,1.8529 1.349145,0 2.338518,-0.036 3.058062,-0.3058 0.737533,-0.2878 0.971385,-0.7556 0.971385,-1.7809 l 0,-2.5724 c 1.439088,1.7989 3.327891,3.148 5.684398,3.9215 0.323795,-0.5576 0.953396,-1.439 1.439088,-1.8888 -1.67294,-0.4317 -3.148005,-1.1512 -4.353241,-2.0866 1.02535,-0.6656 2.248575,-1.5111 3.273925,-2.3565 l -1.762883,-1.2772 z m -7.429292,2.2485 c -0.737533,-0.7015 -2.230587,-1.583 -3.327892,-2.1586 l -1.421099,1.2952 c 1.133282,0.6476 2.57237,1.619 3.21996,2.3205 l 1.529031,-1.4571 z"
             style="font-weight:bold;fill:#ff6d6d;fill-opacity:1"
             id="path4175" />
          <path
             inkscape:connector-curvature="0"
             d="m 94.408181,1032.8317 c 0.197874,-0.3958 0.413738,-0.8455 0.611612,-1.3492 l 1.816849,0 0,1.3492 -2.428461,0 z m 4.461173,-1.3492 3.219956,0 0,-1.9427 -3.219956,0 0,-2.2666 -2.032712,0 0,2.2666 -1.151271,0 c 0.161898,-0.5397 0.305807,-1.0794 0.413738,-1.637 l -1.960757,-0.4137 c -0.323795,1.7089 -0.917419,3.5257 -1.654952,4.659 0.413738,0.1439 1.151271,0.4497 1.618974,0.6836 l -1.349145,0 0,1.9248 4.083413,0 0,1.3131 -3.381857,0 0,6.4579 1.906792,0 0,-4.5511 1.475065,0 0,5.9722 2.032712,0 0,-5.9722 1.582996,0 0,2.6264 c 0,0.1798 -0.054,0.2158 -0.21586,0.2158 -0.17989,0.018 -0.611615,0.018 -1.115296,-0.018 0.233852,0.5217 0.467704,1.2772 0.52167,1.8169 0.899426,0.018 1.582996,-0.018 2.086676,-0.3238 0.52167,-0.3058 0.64759,-0.8095 0.64759,-1.637 l 0,-4.5871 -3.507776,0 0,-1.3131 3.939506,0 0,-1.9248 -3.939506,0 0,-1.3492 z m 6.745726,-2.8422 -1.99674,0 0,10.1276 1.99674,0 0,-10.1276 z m 1.22322,-1.1692 0,13.9411 c 0,0.3058 -0.10793,0.3778 -0.39574,0.3958 -0.30581,0 -1.24122,0 -2.15864,-0.036 0.26983,0.6296 0.55765,1.565 0.6296,2.1586 1.38513,0 2.42847,-0.072 3.09404,-0.4137 0.64759,-0.3598 0.88145,-0.9354 0.88145,-2.0867 l 0,-13.9591 -2.05071,0 z"
             style="font-weight:bold;fill:#ff6d6d;fill-opacity:1"
             id="path4177" />
        </g>
      </g>
    </g>
  </g>
</svg>
